<svg width="50" height="51" viewBox="0 0 50 51" fill="none" xmlns="http://www.w3.org/2000/svg">
<path fill-rule="evenodd" clip-rule="evenodd" d="M31.6388 24.6541C29.1941 31.3709 22.7715 34.1768 17.9428 32.4193C13.114 30.6618 9.99763 24.384 12.4423 17.6672C14.8871 10.9504 21.3096 8.14451 26.1384 9.90203C30.9671 11.6596 34.0835 17.9373 31.6388 24.6541ZM27.6478 36.328C24.101 38.102 20.0384 38.5029 16.2327 37.1178C8.33682 34.2439 4.53626 24.77 7.74388 15.9571C10.9515 7.14423 19.9526 2.32972 27.8485 5.20357C35.7443 8.07742 39.5449 17.5514 36.3372 26.3642C35.3211 29.156 33.7237 31.5465 31.7641 33.4185L38.2843 46.9801L34.0397 49.6227L27.6478 36.328Z" fill="white"/>
</svg>
