<svg width="55" height="54" viewBox="0 0 55 54" fill="none" xmlns="http://www.w3.org/2000/svg">
<path d="M27.833 9C30.22 9 32.5091 9.94821 34.197 11.636C35.8848 13.3239 36.833 15.6131 36.833 18C36.833 20.3869 35.8848 22.6761 34.197 24.364C32.5091 26.0518 30.22 27 27.833 27C25.4461 27 23.1569 26.0518 21.469 24.364C19.7812 22.6761 18.833 20.3869 18.833 18C18.833 15.6131 19.7812 13.3239 21.469 11.636C23.1569 9.94821 25.4461 9 27.833 9ZM27.833 31.5C37.778 31.5 45.833 35.5275 45.833 40.5V45H9.83301V40.5C9.83301 35.5275 17.888 31.5 27.833 31.5Z" fill="#FCFCFC"/>
</svg>
